<?xml version="1.0" encoding="UTF-8" standalone="no"?>
<svg
   xmlns:dc="http://purl.org/dc/elements/1.1/"
   xmlns:cc="http://creativecommons.org/ns#"
   xmlns:rdf="http://www.w3.org/1999/02/22-rdf-syntax-ns#"
   xmlns:svg="http://www.w3.org/2000/svg"
   xmlns="http://www.w3.org/2000/svg"
   version="1.1"
   id="svg2"
   viewBox="0 0 744.09448819 1052.3622047"
   height="297mm"
   width="210mm">
  <defs
     id="defs4" />
  <metadata
     id="metadata7">
    <rdf:RDF>
      <cc:Work
         rdf:about="">
        <dc:format>image/svg+xml</dc:format>
        <dc:type
           rdf:resource="http://purl.org/dc/dcmitype/StillImage" />
        <dc:title></dc:title>
      </cc:Work>
    </rdf:RDF>
  </metadata>
  <g
     id="layer1">
    <path
       d="m 178.58693,489.80851 c 0,4.33975 -1.54,8.04975 -4.62,11.12988 -3.08,3.0795 -6.79,4.61962 -11.12875,4.61962 l -22.04987,0 0,5.25 c 0,1.46976 0.50737,2.71238 1.5225,3.72751 1.01462,1.01512 2.25725,1.52249 3.727,1.52249 l 31.49912,0 0,10.5 -31.49912,0 c -4.33988,0 -8.04975,-1.54012 -11.12938,-4.62012 -3.08012,-3.08013 -4.62012,-6.79013 -4.62012,-11.12988 l 0,-15.75 32.54987,0 c 1.46875,0 2.71125,-0.50737 3.72625,-1.52199 1.015,-1.01513 1.5225,-2.25788 1.5225,-3.72751 0,-1.47025 -0.5075,-2.7125 -1.5225,-3.72762 -1.015,-1.01513 -2.2575,-1.52238 -3.72625,-1.52238 l -37.79937,0 0,41.9995 -10.5,0 0,-52.4995 48.29937,0 c 4.33875,0 8.04875,1.54001 11.12875,4.62013 3.08,3.0795 4.62,6.7895 4.62,11.12987"
       style="fill:#00adef;fill-opacity:1;fill-rule:nonzero;stroke:none"
       id="path3402" />
    <path
       d="m 249.85568,510.80801 c 0,4.33975 -1.54,8.04975 -4.62,11.12988 -3.08,3.08 -6.79,4.62012 -11.13,4.62012 l -31.49875,0 c -4.34,0 -8.05,-1.54012 -11.13,-4.62012 -3.08,-3.08013 -4.62,-6.79013 -4.62,-11.12988 l 0,-20.9995 c 0,-4.34037 1.54,-8.05037 4.62,-11.12987 3.08,-3.08012 6.79,-4.62013 11.13,-4.62013 l 31.49875,0 c 4.34,0 8.05,1.54001 11.13,4.62013 3.08,3.0795 4.62,6.7895 4.62,11.12987 l 0,20.9995 z m -10.5,0 0,-20.9995 c 0,-1.47025 -0.5075,-2.7125 -1.5225,-3.72762 -1.015,-1.01513 -2.2575,-1.52238 -3.7275,-1.52238 l -31.49875,0 c -1.47,0 -2.7125,0.50725 -3.7275,1.52238 -1.015,1.01512 -1.5225,2.25737 -1.5225,3.72762 l 0,20.9995 c 0,1.46975 0.5075,2.71238 1.5225,3.72751 1.015,1.01512 2.2575,1.52249 3.7275,1.52249 l 31.49875,0 c 1.47,0 2.7125,-0.50737 3.7275,-1.52249 1.015,-1.01513 1.5225,-2.25776 1.5225,-3.72751"
       style="fill:#00adef;fill-opacity:1;fill-rule:evenodd;stroke:none"
       id="path3404" />
    <path
       d="m 322.17318,510.80801 c 0,4.33975 -1.54,8.04975 -4.62,11.12988 -3.07875,3.08 -6.78875,4.62012 -11.12875,4.62012 l -47.24875,0 0,-52.4995 47.24875,0 c 4.34,0 8.05,1.54001 11.12875,4.62013 3.08,3.0795 4.62,6.7895 4.62,11.12987 0,3.98976 -1.33,7.48976 -3.98875,10.4995 2.65875,3.01025 3.98875,6.51025 3.98875,10.5 z m -10.5,-20.9995 c 0,-1.47025 -0.5075,-2.7125 -1.5225,-3.72762 -1.01375,-1.01513 -2.25625,-1.52238 -3.72625,-1.52238 l -36.75,0 0,10.4995 36.75,0 c 1.47,0 2.7125,-0.50737 3.72625,-1.522 1.015,-1.01512 1.5225,-2.25787 1.5225,-3.7275 z m 0,20.9995 c 0,-1.47025 -0.5075,-2.7125 -1.5225,-3.72762 -1.01375,-1.01463 -2.25625,-1.52238 -3.72625,-1.52238 l -36.75,0 0,10.5 36.75,0 c 1.47,0 2.7125,-0.50737 3.72625,-1.52249 1.015,-1.01513 1.5225,-2.25776 1.5225,-3.72751"
       style="fill:#00adef;fill-opacity:1;fill-rule:evenodd;stroke:none"
       id="path3406" />
    <path
       d="m 394.49193,510.80801 c 0,4.33975 -1.54,8.04975 -4.62,11.12988 -3.08,3.08 -6.79,4.62012 -11.13,4.62012 l -31.49875,0 c -4.34,0 -8.05,-1.54012 -11.13,-4.62012 -3.08,-3.08013 -4.62,-6.79013 -4.62,-11.12988 l 0,-20.9995 c 0,-4.34037 1.54,-8.05037 4.62,-11.12987 3.08,-3.08012 6.79,-4.62013 11.13,-4.62013 l 31.49875,0 c 4.34,0 8.05,1.54001 11.13,4.62013 3.08,3.0795 4.62,6.7895 4.62,11.12987 l 0,20.9995 z m -10.5,0 0,-20.9995 c 0,-1.47025 -0.5075,-2.7125 -1.5225,-3.72762 -1.015,-1.01513 -2.2575,-1.52238 -3.7275,-1.52238 l -31.49875,0 c -1.47,0 -2.7125,0.50725 -3.7275,1.52238 -1.015,1.01512 -1.5225,2.25737 -1.5225,3.72762 l 0,20.9995 c 0,1.46975 0.5075,2.71238 1.5225,3.72751 1.015,1.01512 2.2575,1.52249 3.7275,1.52249 l 31.49875,0 c 1.47,0 2.7125,-0.50737 3.7275,-1.52249 1.015,-1.01513 1.5225,-2.25776 1.5225,-3.72751"
       style="fill:#00adef;fill-opacity:1;fill-rule:evenodd;stroke:none"
       id="path3408" />
    <path
       d="m 466.80943,500.30801 c 0,4.33975 -1.54,8.05025 -4.61875,11.12988 -3.08,3.08 -6.79,4.62012 -11.13,4.62012 l -36.74875,0 0,10.5 -10.5,0 0,-52.4995 47.24875,0 c 4.34,0 8.05,1.54001 11.13,4.62013 3.07875,3.0795 4.61875,6.7895 4.61875,11.12987 l 0,10.4995 z m -10.49875,0 0,-10.4995 c 0,-1.47025 -0.50875,-2.7125 -1.5225,-3.72762 -1.015,-1.01513 -2.2575,-1.52238 -3.7275,-1.52238 l -36.74875,0 0,20.9995 36.74875,0 c 1.47,0 2.7125,-0.50737 3.7275,-1.5225 1.01375,-1.01462 1.5225,-2.25737 1.5225,-3.7275"
       style="fill:#00adef;fill-opacity:1;fill-rule:evenodd;stroke:none"
       id="path3410" />
    <path
       d="m 536.50318,484.55851 -26.24875,0 0,41.9995 -10.5,0 0,-41.9995 -26.24875,0 0,-10.5 62.9975,0 0,10.5"
       style="fill:#00adef;fill-opacity:1;fill-rule:nonzero;stroke:none"
       id="path3412" />
    <path
       d="m 543.28443,526.55801 10.49951,0 0,-52.4995 -10.49951,0 0,52.4995 z"
       style="fill:#00adef;fill-opacity:1;fill-rule:nonzero;stroke:none"
       id="path3414" />
    <path
       d="m 626.31693,526.55801 -47.24875,0 c -4.34,0 -8.04875,-1.54012 -11.13,-4.62012 -3.07875,-3.08013 -4.61875,-6.79013 -4.61875,-11.12988 l 0,-20.9995 c 0,-4.34037 1.54,-8.05037 4.61875,-11.12987 3.08125,-3.08012 6.79,-4.62013 11.13,-4.62013 l 31.5,0 c 4.33875,0 8.04875,1.54001 11.12875,4.62013 3.08,3.0795 4.62,6.7895 4.62,11.12987 l 0,5.2495 -10.49875,0 0,-5.2495 c 0,-1.47025 -0.5075,-2.7125 -1.5225,-3.72762 -1.01625,-1.01513 -2.2575,-1.52238 -3.7275,-1.52238 l -31.5,0 c -1.46875,0 -2.7125,0.50725 -3.7275,1.52238 -1.01375,1.01512 -1.5225,2.25737 -1.5225,3.72762 l 0,20.9995 c 0,1.46975 0.50875,2.71238 1.5225,3.72751 1.015,1.01512 2.25875,1.52249 3.7275,1.52249 l 47.24875,0 0,10.5"
       style="fill:#00adef;fill-opacity:1;fill-rule:nonzero;stroke:none"
       id="path3416" />
    <path
       d="m 694.43568,510.80801 c 0,4.33975 -1.54,8.04975 -4.62,11.12988 -3.08,3.08 -6.79,4.62012 -11.13,4.62012 l -43.04875,0 0,-10.5 43.04875,0 c 1.47,0 2.7125,-0.50737 3.7275,-1.52249 1.015,-1.01513 1.5225,-2.25775 1.5225,-3.72751 0,-1.47025 -0.5075,-2.7125 -1.5225,-3.72762 -1.015,-1.01463 -2.2575,-1.52238 -3.7275,-1.52238 l -28.34875,0 c -4.34,0 -8.05,-1.54012 -11.13,-4.61962 -3.08,-3.08013 -4.61875,-6.79013 -4.61875,-11.12988 0,-4.34037 1.53875,-8.05037 4.61875,-11.12987 3.08,-3.08012 6.79,-4.62013 11.13,-4.62013 l 43.04875,0 0,10.5 -43.04875,0 c -1.47,0 -2.7125,0.50725 -3.7275,1.52238 -1.015,1.01512 -1.5225,2.25737 -1.5225,3.72762 0,1.46963 0.5075,2.71238 1.5225,3.7275 1.015,1.01463 2.2575,1.522 3.7275,1.522 l 28.34875,0 c 4.34,0 8.05,1.5405 11.13,4.62013 3.08,3.08 4.62,6.79 4.62,11.12987"
       style="fill:#00adef;fill-opacity:1;fill-rule:nonzero;stroke:none"
       id="path3418" />
    <path
       d="m 105.24093,526.55801 -57.748524,0 0,20.99948 -10.499518,0 0,-73.49898 10.499518,0 0,41.9995 36.749025,0 c 1.46975,0 2.712375,-0.50737 3.727,-1.52249 1.015125,-1.01513 1.523,-2.25776 1.523,-3.72751 l 0,-36.7495 10.4995,0 0,36.7495 c 0,1.81975 -0.314875,3.56975 -0.944875,5.25 l 6.194874,0 0,10.5"
       style="fill:#7b7678;fill-opacity:1;fill-rule:nonzero;stroke:none"
       id="path3420" />
    <path
       d="m 338.49443,550.36609 0,-9.4795 -3.645,0 0,-1.29004 8.745,0 0,1.29004 -3.645,0 0,9.4795 -1.455,0"
       style="fill:#7b7678;fill-opacity:1;fill-rule:nonzero;stroke:none"
       id="path3422" />
    <path
       d="m 346.57193,550.36609 0,-10.76954 7.875,0 0,1.29004 -6.42,0 0,3.28467 5.865,0 0,1.29004 -5.865,0 0,3.61524 6.495,0 0,1.28955 -7.95,0"
       style="fill:#7b7678;fill-opacity:1;fill-rule:nonzero;stroke:none"
       id="path3424" />
    <path
       d="m 366.98443,546.40613 c -0.185,1.32959 -0.69375,2.37206 -1.52625,3.12743 -0.8325,0.75489 -1.885,1.13233 -3.15875,1.13233 -1.485,0 -2.6675,-0.51221 -3.54875,-1.53662 -0.88,-1.02442 -1.32125,-2.40479 -1.32125,-4.14063 0,-1.73633 0.4575,-3.11914 1.37375,-4.14844 0.91625,-1.02928 2.145,-1.54394 3.68875,-1.54394 1.21625,0 2.215,0.3125 2.99625,0.93848 0.78125,0.625 1.25,1.4873 1.40625,2.58691 l -1.41,0 c -0.13625,-0.71337 -0.4675,-1.26465 -0.9925,-1.65284 -0.525,-0.38817 -1.19875,-0.58251 -2.025,-0.58251 -1.07875,0 -1.9375,0.39746 -2.5775,1.19238 -0.64,0.79492 -0.96,1.86475 -0.96,3.20996 0,1.42823 0.29625,2.5166 0.89,3.26514 0.5925,0.74805 1.4525,1.12256 2.57875,1.12256 0.835,0 1.5275,-0.25781 2.07875,-0.77344 0.55125,-0.51611 0.9175,-1.24805 1.0975,-2.19677 l 1.41,0"
       style="fill:#7b7678;fill-opacity:1;fill-rule:nonzero;stroke:none"
       id="path3426" />
    <path
       d="m 370.25943,550.36609 0,-10.76954 1.455,0 0,4.40968 5.625,0 0,-4.40968 1.455,0 0,10.76954 -1.455,0 0,-5.06983 -5.625,0 0,5.06983 -1.455,0"
       style="fill:#7b7678;fill-opacity:1;fill-rule:nonzero;stroke:none"
       id="path3428" />
    <path
       d="m 383.98943,550.36609 -1.41,0 0,-10.76954 1.75375,0 5.38625,8.75195 0,-8.75195 1.41,0 0,10.76954 -1.6,0 -5.54,-8.78516 0,8.78516"
       style="fill:#7b7678;fill-opacity:1;fill-rule:nonzero;stroke:none"
       id="path3430" />
    <path
       d="m 395.13943,550.36609 0,-10.76954 1.455,0 0,10.76954 -1.455,0"
       style="fill:#7b7678;fill-opacity:1;fill-rule:nonzero;stroke:none"
       id="path3432" />
    <path
       d="m 409.65318,546.40613 c -0.185,1.32959 -0.695,2.37206 -1.52625,3.12743 -0.8325,0.75489 -1.885,1.13233 -3.16,1.13233 -1.48375,0 -2.66625,-0.51221 -3.54625,-1.53662 -0.8825,-1.02442 -1.3225,-2.40479 -1.3225,-4.14063 0,-1.73633 0.45875,-3.11914 1.37375,-4.14844 0.91625,-1.02928 2.145,-1.54394 3.68875,-1.54394 1.21625,0 2.215,0.3125 2.99625,0.93848 0.78125,0.625 1.25,1.4873 1.40625,2.58691 l -1.41,0 c -0.13625,-0.71337 -0.4675,-1.26465 -0.9925,-1.65284 -0.525,-0.38817 -1.2,-0.58251 -2.025,-0.58251 -1.07875,0 -1.93875,0.39746 -2.5775,1.19238 -0.64,0.79492 -0.96,1.86475 -0.96,3.20996 0,1.42823 0.29625,2.5166 0.89,3.26514 0.5925,0.74805 1.4525,1.12256 2.57875,1.12256 0.835,0 1.5275,-0.25781 2.07875,-0.77344 0.55125,-0.51611 0.9175,-1.24805 1.0975,-2.19677 l 1.41,0"
       style="fill:#7b7678;fill-opacity:1;fill-rule:nonzero;stroke:none"
       id="path3434" />
    <path
       d="m 411.98318,550.36609 4.065,-10.76954 1.665,0 3.8675,10.76954 -1.565,0 -1.0975,-3.11964 -4.30125,0 -1.13,3.11964 -1.50375,0 z m 4.83,-9.18701 -1.7325,4.77733 3.39,0 -1.66,-4.77733 0.002,0"
       style="fill:#7b7678;fill-opacity:1;fill-rule:evenodd;stroke:none"
       id="path3436" />
    <path
       d="m 424.40068,550.36609 0,-10.76954 1.455,0 0,9.47999 5.46,0 0,1.28955 -6.915,0"
       style="fill:#7b7678;fill-opacity:1;fill-rule:nonzero;stroke:none"
       id="path3438" />
    <path
       d="m 448.96943,546.40613 c -0.185,1.32959 -0.69375,2.37206 -1.52625,3.12743 -0.8325,0.75489 -1.885,1.13233 -3.15875,1.13233 -1.48375,0 -2.66625,-0.51221 -3.5475,-1.53662 -0.88125,-1.02442 -1.32125,-2.40479 -1.32125,-4.14063 0,-1.73633 0.4575,-3.11914 1.3725,-4.14844 0.91625,-1.02928 2.14625,-1.54394 3.68875,-1.54394 1.21625,0 2.215,0.3125 2.99625,0.93848 0.78125,0.625 1.25,1.4873 1.40625,2.58691 l -1.41,0 c -0.13625,-0.71337 -0.4675,-1.26465 -0.99125,-1.65284 -0.525,-0.38817 -1.2,-0.58251 -2.02625,-0.58251 -1.07875,0 -1.9375,0.39746 -2.5775,1.19238 -0.63875,0.79492 -0.95875,1.86475 -0.95875,3.20996 0,1.42823 0.29625,2.5166 0.88875,3.26514 0.5925,0.74805 1.4525,1.12256 2.58,1.12256 0.83375,0 1.52625,-0.25781 2.0775,-0.77344 0.55125,-0.51611 0.9175,-1.24805 1.0975,-2.19677 l 1.41,0"
       style="fill:#7b7678;fill-opacity:1;fill-rule:nonzero;stroke:none"
       id="path3440" />
    <path
       d="m 456.92068,550.66589 c -1.5625,0 -2.8275,-0.52198 -3.795,-1.56591 -0.9675,-1.04395 -1.45125,-2.41406 -1.45125,-4.11134 0,-1.70166 0.48375,-3.07568 1.45125,-4.12255 0.9675,-1.04639 2.2325,-1.56983 3.795,-1.56983 1.57375,0 2.84125,0.52344 3.8075,1.56983 0.96375,1.04687 1.44625,2.42089 1.44625,4.12255 0,1.69728 -0.4825,3.06739 -1.44625,4.11134 -0.96625,1.04393 -2.23375,1.56591 -3.8075,1.56591 z m 0,-1.28955 c 1.125,0 2.03125,-0.40332 2.72,-1.21045 0.68875,-0.80713 1.03375,-1.86621 1.03375,-3.17725 0,-1.31542 -0.345,-2.37841 -1.03375,-3.18799 -0.68875,-0.80956 -1.595,-1.21435 -2.72,-1.21435 -1.11875,0 -2.0225,0.40479 -2.7125,1.21435 -0.68875,0.80958 -1.03375,1.87257 -1.03375,3.18799 0,1.31104 0.345,2.37012 1.03375,3.17725 0.69,0.80713 1.59375,1.21045 2.7125,1.21045"
       style="fill:#7b7678;fill-opacity:1;fill-rule:evenodd;stroke:none"
       id="path3442" />
    <path
       d="m 466.78693,550.36609 -1.41,0 0,-10.76954 1.755,0 5.385,8.75195 0,-8.75195 1.41,0 0,10.76954 -1.6,0 -5.54,-8.78516 0,8.78516"
       style="fill:#7b7678;fill-opacity:1;fill-rule:nonzero;stroke:none"
       id="path3444" />
    <path
       d="m 484.27943,542.71667 c -0.0625,-0.68115 -0.33125,-1.20605 -0.80375,-1.57568 -0.4725,-0.36964 -1.1075,-0.55469 -1.905,-0.55469 -0.8225,0 -1.4475,0.15918 -1.87375,0.47705 -0.425,0.31788 -0.6375,0.78271 -0.6375,1.39404 0,0.41603 0.14125,0.72656 0.42375,0.93214 0.28375,0.20507 0.85375,0.4082 1.70875,0.60889 l 1.8775,0.44726 c 1.0075,0.23974 1.725,0.59423 2.155,1.06396 0.43125,0.46435 0.6475,1.12207 0.6475,1.97315 0,0.97803 -0.37,1.75293 -1.11,2.32519 -0.74,0.57226 -1.74125,0.85791 -3.00625,0.85791 -1.40625,0 -2.505,-0.3291 -3.29625,-0.98829 -0.77125,-0.64941 -1.1575,-1.53807 -1.1575,-2.66552 l 0,-0.0811 1.335,0 c 0.025,0.78076 0.3075,1.38378 0.85125,1.80858 0.5425,0.42433 1.29875,0.63673 2.2675,0.63673 0.895,0 1.575,-0.1543 2.04,-0.4624 0.465,-0.30811 0.69625,-0.76075 0.69625,-1.35743 0,-0.51855 -0.15125,-0.90234 -0.4575,-1.15184 -0.30375,-0.24464 -0.915,-0.47707 -1.835,-0.69728 l -1.87875,-0.44726 c -0.94875,-0.2251 -1.6275,-0.53809 -2.03375,-0.93897 -0.40375,-0.40087 -0.605,-0.95606 -0.605,-1.66552 0,-1.03125 0.35,-1.84913 1.05125,-2.45313 0.70125,-0.60401 1.6475,-0.90625 2.83875,-0.90625 1.21,0 2.175,0.30372 2.89375,0.91015 0.7175,0.60694 1.1,1.44337 1.15,2.51026 l -1.33625,0"
       style="fill:#7b7678;fill-opacity:1;fill-rule:nonzero;stroke:none"
       id="path3446" />
    <path
       d="m 497.71943,546.42175 c 0,1.3291 -0.3725,2.36914 -1.12,3.11914 -0.7475,0.75049 -1.785,1.125 -3.1125,1.125 -1.3825,0 -2.435,-0.35986 -3.1575,-1.08105 -0.72375,-0.72071 -1.085,-1.7754 -1.085,-3.16309 l 0,-6.8252 1.455,0 0,6.71534 c 0,1.00195 0.2375,1.76317 0.7125,2.28369 0.47375,0.52051 1.165,0.78076 2.075,0.78076 0.90875,0 1.59875,-0.26025 2.07125,-0.78076 0.47125,-0.52052 0.70625,-1.28174 0.70625,-2.28369 l 0,-6.71534 1.455,0 0,6.8252"
       style="fill:#7b7678;fill-opacity:1;fill-rule:nonzero;stroke:none"
       id="path3448" />
    <path
       d="m 501.53443,550.36609 0,-10.76954 1.455,0 0,9.47999 5.46,0 0,1.28955 -6.915,0"
       style="fill:#7b7678;fill-opacity:1;fill-rule:nonzero;stroke:none"
       id="path3450" />
    <path
       d="m 514.07943,550.36609 0,-9.4795 -3.645,0 0,-1.29004 8.745,0 0,1.29004 -3.645,0 0,9.4795 -1.455,0"
       style="fill:#7b7678;fill-opacity:1;fill-rule:nonzero;stroke:none"
       id="path3452" />
    <path
       d="m 522.23068,550.36609 0,-10.76954 1.455,0 0,10.76954 -1.455,0"
       style="fill:#7b7678;fill-opacity:1;fill-rule:nonzero;stroke:none"
       id="path3454" />
    <path
       d="m 529.08068,550.36609 -1.41,0 0,-10.76954 1.75375,0 5.38625,8.75195 0,-8.75195 1.40875,0 0,10.76954 -1.6,0 -5.53875,-8.78516 0,8.78516"
       style="fill:#7b7678;fill-opacity:1;fill-rule:nonzero;stroke:none"
       id="path3456" />
    <path
       d="m 544.59568,550.66589 c -1.495,0 -2.70375,-0.52198 -3.62625,-1.56591 -0.9225,-1.04395 -1.38375,-2.41406 -1.38375,-4.11134 0,-1.70166 0.47125,-3.07568 1.41375,-4.12255 0.9425,-1.04639 2.17625,-1.56983 3.70125,-1.56983 1.1775,0 2.19,0.33008 3.0375,0.98926 0.8475,0.65967 1.345,1.50488 1.49125,2.53613 l -1.41,0 c -0.13625,-0.71337 -0.48375,-1.26465 -1.04,-1.65284 -0.5575,-0.38817 -1.28,-0.58251 -2.16875,-0.58251 -1.05125,0 -1.90125,0.40723 -2.55125,1.22168 -0.65,0.81445 -0.975,1.88232 -0.975,3.20312 0,1.4043 0.31375,2.49024 0.94125,3.25781 0.6275,0.76857 1.51125,1.15235 2.65375,1.15235 1.1075,0 2.0025,-0.40576 2.68625,-1.21631 0.1075,-0.12695 0.205,-0.26172 0.2925,-0.40332 0.1175,-0.19043 0.21625,-0.45703 0.29625,-0.79883 0.0812,-0.3418 0.12125,-0.66698 0.12125,-0.97461 l 0,-0.13184 -3.35875,0 0,-1.22997 4.70625,0 0,5.69971 -0.90875,0 -0.35125,-1.35499 -0.08,0.0952 c -0.885,1.04004 -2.04625,1.55958 -3.4875,1.55958"
       style="fill:#7b7678;fill-opacity:1;fill-rule:nonzero;stroke:none"
       id="path3458" />
    <path
       d="m 557.88693,550.36609 4.065,-10.76954 1.665,0 3.8675,10.76954 -1.565,0 -1.0975,-3.11964 -4.30125,0 -1.13125,3.11964 -1.5025,0 z m 4.83,-9.18701 -1.7325,4.77733 3.39,0 -1.66,-4.77733 0.003,0"
       style="fill:#7b7678;fill-opacity:1;fill-rule:evenodd;stroke:none"
       id="path3460" />
    <path
       d="m 571.71568,550.36609 -1.41,0 0,-10.76954 1.75375,0 5.385,8.75195 0,-8.75195 1.41125,0 0,10.76954 -1.60125,0 -5.53875,-8.78516 0,8.78516"
       style="fill:#7b7678;fill-opacity:1;fill-rule:nonzero;stroke:none"
       id="path3462" />
    <path
       d="m 582.71568,550.36609 0,-10.76954 4.42125,0 c 1.36625,0 2.45375,0.4873 3.26125,1.46143 0.8075,0.97461 1.21125,2.28467 1.21125,3.93066 0,1.64111 -0.41375,2.94776 -1.24,3.91944 -0.82875,0.97216 -1.945,1.45801 -3.35,1.45801 l -4.30375,0 z m 1.45375,-1.24464 2.66625,0 c 1.045,0 1.8525,-0.35937 2.42125,-1.07764 0.56875,-0.71777 0.8525,-1.73632 0.8525,-3.05517 0,-1.32373 -0.27375,-2.3457 -0.82,-3.0664 -0.5475,-0.7207 -1.32375,-1.08057 -2.32875,-1.08057 l -2.79125,0 0,8.27978"
       style="fill:#7b7678;fill-opacity:1;fill-rule:evenodd;stroke:none"
       id="path3464" />
    <path
       d="m 600.81943,550.36609 0,-10.76954 5.00625,0 c 1.14125,0 2.01,0.24756 2.605,0.74268 0.595,0.49561 0.89375,1.22119 0.89375,2.17774 0,0.94188 -0.31,1.67919 -0.93125,2.21093 -0.15625,0.13135 -0.32375,0.24854 -0.505,0.35108 l 0.2425,0.11767 c 0.65375,0.37647 0.9925,1.00976 1.0175,1.8999 l 0.0588,1.96583 c 0.01,0.32275 0.0512,0.55517 0.12375,0.69726 0.0738,0.1416 0.215,0.26416 0.425,0.3667 l 0,0.23975 -1.7925,0 c -0.0387,-0.0879 -0.0775,-0.31836 -0.11625,-0.69044 -0.0388,-0.37206 -0.0688,-0.78564 -0.0875,-1.24121 l -0.0337,-0.85205 c -0.0187,-0.67139 -0.1825,-1.1499 -0.49,-1.43653 -0.3075,-0.28612 -0.81,-0.42968 -1.5075,-0.42968 l -3.45375,0 0,4.64991 -1.455,0 z m 1.455,-5.90968 3.60125,0 c 0.67375,0 1.1675,-0.14746 1.48,-0.44188 0.3125,-0.29493 0.46875,-0.76075 0.46875,-1.39893 0,-0.61817 -0.165,-1.07081 -0.495,-1.3584 -0.32875,-0.28711 -0.85,-0.43066 -1.5625,-0.43066 l -3.4925,0 0,3.62987"
       style="fill:#7b7678;fill-opacity:1;fill-rule:evenodd;stroke:none"
       id="path3466" />
    <path
       d="m 613.12318,550.36609 0,-10.76954 7.875,0 0,1.29004 -6.41875,0 0,3.28467 5.86375,0 0,1.29004 -5.86375,0 0,3.61524 6.49375,0 0,1.28955 -7.95,0"
       style="fill:#7b7678;fill-opacity:1;fill-rule:nonzero;stroke:none"
       id="path3468" />
    <path
       d="m 631.03068,542.71667 c -0.0637,-0.68115 -0.3325,-1.20605 -0.805,-1.57568 -0.4725,-0.36964 -1.1075,-0.55469 -1.905,-0.55469 -0.8225,0 -1.4475,0.15918 -1.8725,0.47705 -0.42625,0.31788 -0.63875,0.78271 -0.63875,1.39404 0,0.41603 0.14125,0.72656 0.425,0.93214 0.2825,0.20507 0.8525,0.4082 1.7075,0.60889 l 1.8775,0.44726 c 1.0075,0.23974 1.725,0.59423 2.15625,1.06396 0.43125,0.46435 0.64625,1.12207 0.64625,1.97315 0,0.97803 -0.37,1.75293 -1.11,2.32519 -0.73875,0.57226 -1.74125,0.85791 -3.00625,0.85791 -1.40625,0 -2.505,-0.3291 -3.29625,-0.98829 -0.77125,-0.64941 -1.1575,-1.53807 -1.1575,-2.66552 l 0,-0.0811 1.335,0 c 0.025,0.78076 0.3075,1.38378 0.85125,1.80858 0.54375,0.42433 1.29875,0.63673 2.2675,0.63673 0.895,0 1.575,-0.1543 2.04,-0.4624 0.465,-0.30811 0.6975,-0.76075 0.6975,-1.35743 0,-0.51855 -0.1525,-0.90234 -0.45875,-1.15184 -0.30375,-0.24464 -0.915,-0.47707 -1.835,-0.69728 l -1.87875,-0.44726 c -0.94875,-0.2251 -1.6275,-0.53809 -2.03375,-0.93897 -0.4025,-0.40087 -0.605,-0.95606 -0.605,-1.66552 0,-1.03125 0.35,-1.84913 1.05125,-2.45313 0.70125,-0.60401 1.6475,-0.90625 2.83875,-0.90625 1.21125,0 2.175,0.30372 2.89375,0.91015 0.7175,0.60694 1.1,1.44337 1.14875,2.51026 l -1.33375,0"
       style="fill:#7b7678;fill-opacity:1;fill-rule:nonzero;stroke:none"
       id="path3470" />
    <path
       d="m 636.10068,550.36609 0,-10.76954 7.875,0 0,1.29004 -6.42,0 0,3.28467 5.865,0 0,1.29004 -5.865,0 0,3.61524 6.49375,0 0,1.28955 -7.94875,0"
       style="fill:#7b7678;fill-opacity:1;fill-rule:nonzero;stroke:none"
       id="path3472" />
    <path
       d="m 646.50818,550.36609 4.065,-10.76954 1.665,0 3.8675,10.76954 -1.565,0 -1.09625,-3.11964 -4.3025,0 -1.13,3.11964 -1.50375,0 z m 4.83,-9.18701 -1.7325,4.77733 3.39125,0 -1.66125,-4.77733 0.002,0"
       style="fill:#7b7678;fill-opacity:1;fill-rule:evenodd;stroke:none"
       id="path3474" />
    <path
       d="m 659.10693,550.36609 0,-10.76954 5.00625,0 c 1.1425,0 2.01,0.24756 2.60625,0.74268 0.59375,0.49561 0.8925,1.22119 0.8925,2.17774 0,0.94188 -0.31,1.67919 -0.93,2.21093 -0.15625,0.13135 -0.325,0.24854 -0.50625,0.35108 l 0.2425,0.11767 c 0.65375,0.37647 0.99375,1.00976 1.0175,1.8999 l 0.0587,1.96583 c 0.01,0.32275 0.0512,0.55517 0.125,0.69726 0.0725,0.1416 0.21375,0.26416 0.42375,0.3667 l 0,0.23975 -1.79125,0 c -0.0388,-0.0879 -0.0788,-0.31836 -0.1175,-0.69044 -0.0387,-0.37206 -0.0687,-0.78564 -0.0875,-1.24121 l -0.0325,-0.85205 c -0.02,-0.67139 -0.18375,-1.1499 -0.49125,-1.43653 -0.3075,-0.28612 -0.81,-0.42968 -1.5075,-0.42968 l -3.45375,0 0,4.64991 -1.455,0 z m 1.455,-5.90968 3.6025,0 c 0.67375,0 1.16625,-0.14746 1.47875,-0.44188 0.3125,-0.29493 0.46875,-0.76075 0.46875,-1.39893 0,-0.61817 -0.165,-1.07081 -0.495,-1.3584 -0.32875,-0.28711 -0.85,-0.43066 -1.5625,-0.43066 l -3.4925,0 0,3.62987"
       style="fill:#7b7678;fill-opacity:1;fill-rule:evenodd;stroke:none"
       id="path3476" />
    <path
       d="m 680.33568,546.40613 c -0.185,1.32959 -0.69375,2.37206 -1.52625,3.12743 -0.83125,0.75489 -1.885,1.13233 -3.15875,1.13233 -1.48375,0 -2.66625,-0.51221 -3.5475,-1.53662 -0.88125,-1.02442 -1.32125,-2.40479 -1.32125,-4.14063 0,-1.73633 0.4575,-3.11914 1.3725,-4.14844 0.91625,-1.02928 2.14625,-1.54394 3.69,-1.54394 1.215,0 2.21375,0.3125 2.995,0.93848 0.7825,0.625 1.25125,1.4873 1.4075,2.58691 l -1.41,0 c -0.1375,-0.71337 -0.4675,-1.26465 -0.9925,-1.65284 -0.525,-0.38817 -1.2,-0.58251 -2.025,-0.58251 -1.08,0 -1.93875,0.39746 -2.57875,1.19238 -0.63875,0.79492 -0.95875,1.86475 -0.95875,3.20996 0,1.42823 0.29625,2.5166 0.88875,3.26514 0.5925,0.74805 1.4525,1.12256 2.58,1.12256 0.83375,0 1.52625,-0.25781 2.07875,-0.77344 0.55125,-0.51611 0.9175,-1.24805 1.0975,-2.19677 l 1.40875,0"
       style="fill:#7b7678;fill-opacity:1;fill-rule:nonzero;stroke:none"
       id="path3478" />
    <path
       d="m 683.61068,550.36609 0,-10.76954 1.455,0 0,4.40968 5.625,0 0,-4.40968 1.455,0 0,10.76954 -1.455,0 0,-5.06983 -5.625,0 0,5.06983 -1.455,0"
       style="fill:#7b7678;fill-opacity:1;fill-rule:nonzero;stroke:none"
       id="path3480" />
  </g>
</svg>
